<svg width="1362" height="400" viewBox="0 0 1362 400" fill="none" xmlns="http://www.w3.org/2000/svg">
<path d="M16.3213 321.548C18.0645 347.08 37.6494 363.076 67.0781 363.076C96.8145 363.076 116.399 346.465 116.399 321.24C116.399 299.092 104.505 286.787 75.6914 279.302L63.6943 276.123C43.1865 270.791 34.3682 262.588 34.3682 248.745C34.3682 231.826 46.5703 221.777 67.0781 221.777C85.6377 221.777 97.7373 231.519 99.7881 248.232H113.836C112.4 224.443 93.9434 208.96 67.0781 208.96C38.5723 208.96 20.0127 224.648 20.0127 248.745C20.0127 269.971 32.2148 282.583 60.0029 289.863L71.5898 292.837C92.7129 298.271 102.044 307.09 102.044 321.24C102.044 338.774 88.2012 350.259 67.0781 350.259C46.3652 350.259 32.3174 339.287 30.3691 321.548H16.3213ZM177.82 220.854V249.565H148.084V260.947H177.82V328.11C177.82 349.849 190.945 360.615 217.503 360.615C223.86 360.615 234.217 360 237.498 359.385V347.9C233.909 348.413 225.809 348.721 218.221 348.721C200.687 348.721 191.253 341.338 191.253 327.7V260.947H237.498V249.565H191.253V220.854H177.82ZM368.646 249.565H355.213V315.19C355.213 335.698 341.78 349.746 321.99 349.746C303.431 349.746 294.715 339.595 294.715 317.959V249.565H281.282V321.343C281.282 347.593 294.305 361.846 318.401 361.846C335.525 361.846 348.445 354.053 354.495 340.107H355.828V360H368.646V249.565ZM449.856 361.846C465.545 361.846 477.337 355.693 483.797 344.106H485.643V360H498.46V205.576H485.027V265.869H483.182C477.952 254.282 465.853 247.72 449.856 247.72C424.222 247.72 406.79 266.587 406.79 294.17V315.396C406.79 342.979 424.222 361.846 449.856 361.846ZM452.83 349.849C433.04 349.849 420.223 334.98 420.223 312.217V297.451C420.223 274.688 433.04 259.819 452.83 259.819C472.518 259.819 485.335 274.585 485.335 297.451V312.217C485.335 335.083 472.518 349.849 452.83 349.849ZM554.241 399.067C572.288 399.067 580.081 391.89 589.925 365.332L632.889 249.565H618.533L585.208 345.337H583.978L550.55 249.565H535.989L577.415 360.718L575.159 367.588C569.725 382.251 564.188 387.378 554.036 387.378C552.396 387.378 549.524 387.275 547.986 386.968V398.657C549.729 398.862 552.601 399.067 554.241 399.067ZM815.449 316.113C815.449 337.031 801.812 350.054 779.971 350.054C753.926 350.054 740.288 332.212 740.288 298.271V273.765C740.288 239.824 753.926 221.982 779.971 221.982C800.376 221.982 814.731 236.235 815.552 257.256H829.6C828.882 227.314 810.015 208.96 779.971 208.96C745.928 208.96 726.24 232.646 726.24 273.765V298.271C726.24 339.39 745.928 363.076 779.971 363.076C808.887 363.076 829.497 344.414 829.497 318.062V286.274H778.945V298.784H815.449V316.113ZM901.992 310.371C901.992 280.122 917.168 260.845 940.957 260.845C946.904 260.845 953.979 262.075 959.106 263.921V249.258C955.62 247.72 949.365 246.797 943.008 246.797C921.475 246.797 906.914 257.974 903.12 277.661H901.685V249.565H863.54V260.435H888.56V349.131H865.796V360H937.061V349.131H901.992V310.371ZM1037.04 361.846C1065.54 361.846 1083.79 342.773 1083.79 313.037V296.631C1083.79 266.895 1065.54 247.822 1037.04 247.822C1008.53 247.822 990.278 266.895 990.278 296.631V313.037C990.278 342.773 1008.53 361.846 1037.04 361.846ZM1037.04 259.819C1057.54 259.819 1070.36 274.482 1070.36 298.374V311.294C1070.36 335.186 1057.54 349.849 1037.04 349.849C1016.53 349.849 1003.71 335.186 1003.71 311.294V298.374C1003.71 274.482 1016.53 259.819 1037.04 259.819ZM1210.53 249.565H1197.1V315.19C1197.1 335.698 1183.67 349.746 1163.88 349.746C1145.32 349.746 1136.6 339.595 1136.6 317.959V249.565H1123.17V321.343C1123.17 347.593 1136.19 361.846 1160.29 361.846C1177.41 361.846 1190.33 354.053 1196.38 340.107H1197.71V360H1210.53V249.565ZM1301.59 247.72C1285.9 247.72 1274.11 253.872 1267.65 265.459H1265.8V249.565H1252.98V397.427H1266.42V343.696H1268.26C1273.49 355.283 1285.59 361.846 1301.59 361.846C1327.22 361.846 1344.65 342.979 1344.65 315.396V294.17C1344.65 266.587 1327.22 247.72 1301.59 247.72ZM1298.61 259.819C1318.4 259.819 1331.22 274.688 1331.22 297.451V312.217C1331.22 334.98 1318.4 349.849 1298.61 349.849C1278.93 349.849 1266.11 335.083 1266.11 312.217V297.451C1266.11 274.585 1278.93 259.819 1298.61 259.819Z" fill="black"/>
<path d="M131.883 180C163.772 180 182.332 164.927 182.332 139.087C182.332 118.989 169.72 104.736 149.725 102.48V101.147C164.49 98.3789 174.744 85.0488 174.744 68.54C174.744 45.6738 158.646 32.0361 131.78 32.0361H86.2529V180H131.883ZM100.301 44.4434H129.114C149.109 44.4434 160.594 54.082 160.594 70.7959C160.594 88.0225 148.494 97.251 125.73 97.251H100.301V44.4434ZM100.301 167.593V109.453H129.217C154.646 109.453 167.977 119.399 167.977 138.369C167.977 157.339 154.646 167.593 129.935 167.593H100.301ZM308.147 180V169.131H270.311V25.5762H217.811V36.4453H256.878V169.131H218.016V180H308.147ZM421.966 152.725C418.582 163.491 407.61 169.849 392.537 169.849C372.029 169.849 359.007 155.186 359.007 132.114V128.32H435.809V119.604C435.809 86.5869 419.505 67.7197 390.999 67.7197C363.621 67.7197 345.574 86.792 345.574 115.913V132.012C345.574 163.491 362.801 181.846 392.537 181.846C414.788 181.846 431.604 170.361 435.296 152.725H421.966ZM390.999 79.6143C410.481 79.6143 422.171 93.7646 422.171 117.246H359.007C359.007 93.6621 371.004 79.6143 390.999 79.6143ZM476.004 180H489.437V114.375C489.437 93.8672 502.869 79.8193 522.659 79.8193C541.219 79.8193 549.935 89.9707 549.935 111.606V180H563.367V108.223C563.367 81.9727 550.345 67.7197 526.248 67.7197C509.124 67.7197 496.204 75.5127 490.154 89.458H488.821V69.5654H476.004V180ZM644.578 181.846C660.267 181.846 672.059 175.693 678.519 164.106H680.364V180H693.182V25.5762H679.749V85.8691H677.903C672.674 74.2822 660.574 67.7197 644.578 67.7197C618.943 67.7197 601.512 86.5869 601.512 114.17V135.396C601.512 162.979 618.943 181.846 644.578 181.846ZM647.552 169.849C627.762 169.849 614.944 154.98 614.944 132.217V117.451C614.944 94.6875 627.762 79.8193 647.552 79.8193C667.239 79.8193 680.057 94.585 680.057 117.451V132.217C680.057 155.083 667.239 169.849 647.552 169.849ZM811.409 152.725C808.025 163.491 797.054 169.849 781.98 169.849C761.473 169.849 748.45 155.186 748.45 132.114V128.32H825.252V119.604C825.252 86.5869 808.948 67.7197 780.442 67.7197C753.064 67.7197 735.018 86.792 735.018 115.913V132.012C735.018 163.491 752.244 181.846 781.98 181.846C804.231 181.846 821.048 170.361 824.739 152.725H811.409ZM780.442 79.6143C799.925 79.6143 811.614 93.7646 811.614 117.246H748.45C748.45 93.6621 760.447 79.6143 780.442 79.6143ZM903.899 130.371C903.899 100.122 919.075 80.8447 942.864 80.8447C948.812 80.8447 955.887 82.0752 961.014 83.9209V69.2578C957.527 67.7197 951.272 66.7969 944.915 66.7969C923.382 66.7969 908.821 77.9736 905.027 97.6611H903.592V69.5654H865.447V80.4346H890.467V169.131H867.703V180H938.968V169.131H903.899V130.371ZM1083.9 109.658H1100.51C1122.35 109.658 1136.19 121.758 1136.19 140.83C1136.19 159.287 1122.86 170.771 1101.33 170.771C1081.85 170.771 1067.8 159.492 1065.95 142.163H1052.52C1053.85 166.67 1073.64 183.076 1101.74 183.076C1129.83 183.076 1150.44 165.132 1150.44 140.522C1150.44 120.015 1138.75 105.967 1119.27 103.198V101.66C1134.96 97.5586 1144.09 84.8438 1144.09 66.8994C1144.09 44.8535 1125.83 28.96 1100.71 28.96C1074.77 28.96 1057.44 44.2383 1055.39 68.9502H1069.44C1071.18 51.7236 1082.67 41.2646 1100 41.2646C1117.43 41.2646 1129.22 52.2363 1129.22 68.6426C1129.22 85.459 1116.81 97.5586 1099.58 97.5586H1083.9V109.658ZM1184.69 32.0361V180H1223.96C1266.01 180 1287.03 155.391 1287.03 106.069C1287.03 56.6455 1266.01 32.0361 1223.96 32.0361H1184.69ZM1198.74 44.751H1223.14C1256.67 44.751 1272.67 64.541 1272.67 106.069C1272.67 147.598 1256.67 167.285 1223.14 167.285H1198.74V44.751Z" fill="black"/>
<path d="M145.858 243C162.562 243 172.284 235.104 172.284 221.569C172.284 211.042 165.678 203.576 155.204 202.395V201.696C162.938 200.246 168.31 193.264 168.31 184.616C168.31 172.639 159.877 165.495 145.805 165.495H121.957V243H145.858ZM129.315 171.994H144.408C154.882 171.994 160.897 177.043 160.897 185.798C160.897 194.821 154.56 199.655 142.636 199.655H129.315V171.994ZM129.315 236.501V206.047H144.462C157.782 206.047 164.765 211.257 164.765 221.193C164.765 231.13 157.782 236.501 144.838 236.501H129.315ZM214.071 169.846C217.724 169.846 220.731 166.838 220.731 163.186C220.731 159.533 217.724 156.525 214.071 156.525C210.419 156.525 207.411 159.533 207.411 163.186C207.411 166.838 210.419 169.846 214.071 169.846ZM238.188 243V237.307H218.368V185.153H190.868V190.847H211.332V237.307H190.976V243H238.188ZM258.114 243H265.15V208.625C265.15 197.883 272.187 190.524 282.553 190.524C292.274 190.524 296.84 195.842 296.84 207.175V243H303.876V205.402C303.876 191.652 297.055 184.187 284.433 184.187C275.463 184.187 268.695 188.269 265.526 195.573H264.828V185.153H258.114V243ZM371.874 185.153H364.838V219.528C364.838 230.271 357.802 237.629 347.436 237.629C337.714 237.629 333.148 232.312 333.148 220.979V185.153H326.112V222.751C326.112 236.501 332.934 243.967 345.556 243.967C354.525 243.967 361.293 239.885 364.462 232.58H365.16V243H371.874V185.153Z" fill="white"/>
<path d="M474.689 244.611C488.332 244.611 496.711 236.018 496.711 221.892V165.495H463.142V171.833H489.353V221.623C489.353 231.936 484.035 237.79 474.636 237.79C466.579 237.79 460.778 232.688 460.456 225.275H453.151C453.259 236.662 462.121 244.611 474.689 244.611ZM544.997 243.967C559.929 243.967 569.489 233.977 569.489 218.4V209.807C569.489 194.23 559.929 184.24 544.997 184.24C530.065 184.24 520.505 194.23 520.505 209.807V218.4C520.505 233.977 530.065 243.967 544.997 243.967ZM544.997 190.524C555.739 190.524 562.453 198.205 562.453 210.72V217.487C562.453 230.002 555.739 237.683 544.997 237.683C534.255 237.683 527.541 230.002 527.541 217.487V210.72C527.541 198.205 534.255 190.524 544.997 190.524ZM592.8 200.192C592.8 208.088 597.849 213.137 608.161 215.554L616.701 217.595C624.597 219.475 627.658 222.268 627.658 227.531C627.658 233.869 622.126 237.951 613.479 237.951C605.422 237.951 599.836 234.46 598.332 228.498H591.027C592.102 238.005 600.642 243.967 613.156 243.967C626.315 243.967 634.963 237.307 634.963 227.102C634.963 218.938 629.914 214.05 618.796 211.418L610.954 209.592C603.059 207.766 599.89 204.973 599.89 199.924C599.89 193.908 605.046 190.041 613.103 190.041C620.461 190.041 625.725 193.532 626.96 199.172H633.889C632.653 190.041 624.65 184.187 613.317 184.187C601.125 184.187 592.8 190.686 592.8 200.192ZM697.805 228.713C696.032 234.353 690.285 237.683 682.39 237.683C671.647 237.683 664.826 230.002 664.826 217.917V215.93H705.056V211.364C705.056 194.069 696.516 184.187 681.584 184.187C667.243 184.187 657.79 194.177 657.79 209.431V217.863C657.79 234.353 666.813 243.967 682.39 243.967C694.045 243.967 702.854 237.951 704.787 228.713H697.805ZM681.584 190.417C691.789 190.417 697.912 197.829 697.912 210.129H664.826C664.826 197.775 671.11 190.417 681.584 190.417ZM751.569 184.187C743.352 184.187 737.175 187.409 733.791 193.479H732.824V185.153H726.11V262.604H733.146V234.46H734.113C736.853 240.529 743.19 243.967 751.569 243.967C764.997 243.967 774.128 234.084 774.128 219.636V208.518C774.128 194.069 764.997 184.187 751.569 184.187ZM750.012 190.524C760.378 190.524 767.092 198.312 767.092 210.236V217.971C767.092 229.895 760.378 237.683 750.012 237.683C739.699 237.683 732.985 229.948 732.985 217.971V210.236C732.985 198.259 739.699 190.524 750.012 190.524ZM794.108 243H801.145V208.625C801.145 197.883 808.181 190.524 818.547 190.524C828.269 190.524 832.834 195.842 832.834 207.175V243H839.87V205.402C839.87 191.652 833.049 184.187 820.427 184.187C811.457 184.187 804.689 188.269 801.521 195.573H800.822V162.111H794.108V243Z" fill="white"/>
<path d="M945.858 243C962.562 243 972.284 235.104 972.284 221.569C972.284 211.042 965.678 203.576 955.204 202.395V201.696C962.938 200.246 968.31 193.264 968.31 184.616C968.31 172.639 959.877 165.495 945.805 165.495H921.957V243H945.858ZM929.315 171.994H944.408C954.882 171.994 960.897 177.043 960.897 185.798C960.897 194.821 954.56 199.655 942.636 199.655H929.315V171.994ZM929.315 236.501V206.047H944.462C957.782 206.047 964.765 211.257 964.765 221.193C964.765 231.13 957.782 236.501 944.838 236.501H929.315ZM1038.19 243V237.307H1018.37V162.111H990.868V167.805H1011.33V237.307H990.976V243H1038.19ZM1075.89 244.021C1084.65 244.021 1091.04 240.422 1093.78 233.923H1094.53V243.054H1101.3V203.308C1101.3 191.545 1093.67 184.67 1080.57 184.67C1069.39 184.67 1060.69 190.847 1059.62 199.494H1066.6C1068.21 193.908 1073.26 190.793 1080.57 190.793C1089.43 190.793 1094.21 195.305 1094.21 203.63V209.108L1077.45 209.86C1064.67 210.451 1057.42 216.521 1057.42 226.672C1057.42 237.146 1064.77 244.021 1075.89 244.021ZM1077.61 237.79C1069.61 237.79 1064.67 233.547 1064.67 226.672C1064.67 219.904 1069.29 216.037 1077.93 215.661L1094.21 214.963V223.02C1094.21 231.345 1086.96 237.79 1077.61 237.79ZM1172.3 202.18C1170.8 191.33 1161.99 184.187 1150.01 184.187C1134.81 184.187 1125.68 193.854 1125.68 209.968V218.186C1125.68 234.299 1134.81 243.967 1150.01 243.967C1161.99 243.967 1170.8 236.823 1172.3 225.974H1165.32C1164.14 232.849 1157.75 237.629 1149.85 237.629C1138.84 237.629 1132.72 230.271 1132.72 217.004V211.149C1132.72 197.883 1138.84 190.524 1149.85 190.524C1157.75 190.524 1164.14 195.305 1165.32 202.18H1172.3ZM1206.52 212.385H1205.87V162.111H1198.84V243H1205.87V221.086L1214.79 212.385L1235.74 243H1244.22L1219.73 207.551L1242.61 185.153H1233.7L1206.52 212.385Z" fill="white"/>
</svg>
